<svg xmlns="http://www.w3.org/2000/svg" xmlns:xlink="http://www.w3.org/1999/xlink" id="Layer_1" width="246" height="61" x="0" y="0" enable-background="new 30.5 123.5 246 61" version="1.1" viewBox="30.5 123.5 246 61" xml:space="preserve"><path fill="#FFF" d="M61.316,154.222L50.78,143.705l-10.535,10.517c-2.903,2.904-4.354,6.774-4.354,10.498	c0,3.722,1.451,7.648,4.354,10.553c2.903,2.903,6.72,4.373,10.535,4.373c3.816,0,7.63-1.47,10.536-4.373	c2.902-2.904,4.354-6.831,4.354-10.553C65.671,160.996,64.219,157.126,61.316,154.222z M39.612,165.388	c0.018-3.722,1.156-6.087,3.275-8.188l7.893-8.06l7.894,8.152c2.12,2.083,3.256,4.373,3.274,8.095H39.612z"/><text fill="#FFF" font-family="'MyriadPro-Regular'" font-size="70" transform="matrix(1 0 0 1 71.5 177.5)">aviator</text></svg>